<svg xmlns="http://www.w3.org/2000/svg" viewBox="0 0 567.21 166.37"><defs><style>.cls-1{fill:#fff;}</style></defs><g id="Livello_2" data-name="Livello 2"><g id="Livello_1-2" data-name="Livello 1"><path class="cls-1" d="M155,20.75h-6.77l-36.4.08H80.54L84.47,0H48.1L44.17,20.82H20.27L13.49,57.21H37.28L30.46,93.36H6.76L0,129.73l23.58,0L16.73,166H53.12L66.85,93.26l6.8-36,31.28,0L98.09,93.41l-28.71,0a95.9,95.9,0,0,0-1.92,18.92,97,97,0,0,0,1.65,17.47H91.22L84.38,166h36.38l6.83-36.15h23.56a17.68,17.68,0,0,0,2.2-.14H155a54.48,54.48,0,1,0,0-108.95ZM134.47,93.43,140.42,62l-5.78,31.47Zm39.17-14.81a18.08,18.08,0,0,1-17.8,14.81H134.69l6.7-36.15h15.76A18.1,18.1,0,0,1,173.64,78.62Z"/><path class="cls-1" d="M149.87,12,152.13,0H115.75l-3.41,18a138.87,138.87,0,0,0,21.59-1.6A93.74,93.74,0,0,0,149.87,12Z"/><path class="cls-1" d="M213.14.29V15.42H234v55.1h18.33V15.42h21V.29Z"/><path class="cls-1" d="M280.75,16.36V70.52h17.73V16.36Zm0-16.11V13.46a108.32,108.32,0,0,0,12.37-1.35c1.8-.35,3.6-.73,5.36-1.18V.25Z"/><path class="cls-1" d="M380.22,16.36V70.52H398V16.36Zm0-16.11V13.46a108.32,108.32,0,0,0,12.37-1.35c1.8-.35,3.59-.73,5.36-1.18V.25Z"/><path class="cls-1" d="M380.22,16.32v54.2H398V16.32Z"/><path class="cls-1" d="M370,16.36a21.76,21.76,0,0,0-1-2.62,20.15,20.15,0,0,0-5.21-7Q356.38.29,343,.29H312.11V70.52h18.32V51.08H343q13.43,0,20.83-6.86t7.42-19.28A28.88,28.88,0,0,0,370,16.36Zm-19.28,17.3q-3.06,2.79-8.67,2.79H330.43V14.92h11.62q5.61,0,8.67,2.76t3,7.86C353.77,29.08,352.75,31.78,350.72,33.66Z"/><path class="cls-1" d="M252.33,113.84a33.18,33.18,0,0,0-10-2,9.37,9.37,0,0,0-5,1.17,3.87,3.87,0,0,0-1.84,3.45,4.73,4.73,0,0,0,1.61,3.63,12.43,12.43,0,0,0,4,2.36q2.35.89,7,2.31a90.32,90.32,0,0,1,11.36,4,19.92,19.92,0,0,1,7.69,6.08q3.21,4.11,3.21,10.71a18.33,18.33,0,0,1-3.49,11.27,21.26,21.26,0,0,1-9.58,7,37.16,37.16,0,0,1-13.53,2.35,49,49,0,0,1-16.36-2.87,44.87,44.87,0,0,1-14.1-7.88l6.69-13.49a41.63,41.63,0,0,0,11.84,7.27A32.41,32.41,0,0,0,243.8,152a11.26,11.26,0,0,0,6.08-1.41,4.61,4.61,0,0,0,2.22-4.15,4.88,4.88,0,0,0-1.65-3.77,12.17,12.17,0,0,0-4.15-2.41q-2.51-.89-7-2.12a86.43,86.43,0,0,1-11.22-3.82,19.78,19.78,0,0,1-7.59-5.85q-3.17-3.91-3.17-10.42a18.19,18.19,0,0,1,3.26-10.75,20.68,20.68,0,0,1,9.24-7.12,35.83,35.83,0,0,1,13.91-2.5,50.17,50.17,0,0,1,14.15,2,46.49,46.49,0,0,1,12.26,5.42l-6.5,13.77A57.78,57.78,0,0,0,252.33,113.84Z"/><path class="cls-1" d="M328.73,102.42A32.89,32.89,0,0,1,346.23,132a33.45,33.45,0,0,1-17.5,29.89,39.22,39.22,0,0,1-36.5,0,33.19,33.19,0,0,1-12.83-12.35A33.88,33.88,0,0,1,274.73,132a33,33,0,0,1,4.67-17.36,33.32,33.32,0,0,1,12.83-12.17,39.81,39.81,0,0,1,36.5,0Zm-27.16,12.74a18.27,18.27,0,0,0-6.65,7A21.06,21.06,0,0,0,295,142a19,19,0,0,0,6.65,7.07,16.72,16.72,0,0,0,9.05,2.6,16.54,16.54,0,0,0,9-2.6,18.17,18.17,0,0,0,6.46-7.07,22,22,0,0,0,0-19.81,17.89,17.89,0,0,0-6.46-7,16.75,16.75,0,0,0-9-2.55A17.21,17.21,0,0,0,301.57,115.16Z"/><path class="cls-1" d="M393.86,115a18.23,18.23,0,0,0-8.77-2.41,17.14,17.14,0,0,0-9.11,2.5,17.77,17.77,0,0,0-6.46,6.88,21.46,21.46,0,0,0,0,19.53A17.7,17.7,0,0,0,376,148.4a17.14,17.14,0,0,0,9.11,2.5,20.09,20.09,0,0,0,8.49-2.07,26.94,26.94,0,0,0,7.92-5.66L411.59,154a40.26,40.26,0,0,1-12.78,9,35.45,35.45,0,0,1-14.67,3.35,35.07,35.07,0,0,1-17.73-4.53A33,33,0,0,1,354,149.49,34.39,34.39,0,0,1,349.43,132a33,33,0,0,1,17.31-29.53A36.94,36.94,0,0,1,384.8,98a36.54,36.54,0,0,1,14.53,3.07,35.89,35.89,0,0,1,12.16,8.34l-10,12.08A24.6,24.6,0,0,0,393.86,115Z"/><path class="cls-1" d="M419,99h17.26v66.12H419Z"/><path class="cls-1" d="M497.61,165.15l-4.53-11.7H464.5l-4.62,11.7H442.15L470.54,99h17.73L516,165.15Zm-27.92-24.9H488l-9.06-23.58Z"/><path class="cls-1" d="M521.94,99H539.2v51.4h28v14.72H521.94Z"/></g></g></svg>